<svg id="svg2" viewBox="0 0 370 370" xmlns="http://www.w3.org/2000/svg"><rect x="30" y="30" width="60" height="60" rx="10" ry="10" style="fill: rgb(240, 240, 240); stroke: rgb(204, 204, 204); stroke-width: 2;"></rect><rect x="95" y="30" width="60" height="60" rx="10" ry="10" style="fill: rgb(240, 240, 240); stroke: rgb(204, 204, 204); stroke-width: 2;"></rect><rect x="160" y="30" width="60" height="60" rx="10" ry="10" style="fill: rgb(240, 240, 240); stroke: rgb(204, 204, 204); stroke-width: 2;"></rect><rect x="225" y="30" width="60" height="60" rx="10" ry="10" style="fill: rgb(240, 240, 240); stroke: rgb(204, 204, 204); stroke-width: 2;"></rect><rect x="290" y="30" width="60" height="60" rx="10" ry="10" style="fill: rgb(240, 240, 240); stroke: rgb(204, 204, 204); stroke-width: 2;"></rect><rect x="30" y="95" width="60" height="60" rx="10" ry="10" style="fill: rgb(240, 240, 240); stroke: rgb(204, 204, 204); stroke-width: 2;"></rect><rect x="95" y="95" width="60" height="60" rx="10" ry="10" style="fill: rgb(240, 240, 240); stroke: rgb(204, 204, 204); stroke-width: 2;"></rect><rect x="160" y="95" width="60" height="60" rx="10" ry="10" style="fill: rgb(161, 202, 230); stroke: rgb(204, 204, 204); stroke-width: 2;"></rect><rect x="225" y="95" width="60" height="60" rx="10" ry="10" style="fill: rgb(240, 240, 240); stroke: rgb(204, 204, 204); stroke-width: 2;"></rect><rect x="290" y="95" width="60" height="60" rx="10" ry="10" style="fill: rgb(240, 240, 240); stroke: rgb(204, 204, 204); stroke-width: 2;"></rect><rect x="30" y="160" width="60" height="60" rx="10" ry="10" style="fill: rgb(240, 240, 240); stroke: rgb(204, 204, 204); stroke-width: 2;"></rect><rect x="95" y="160" width="60" height="60" rx="10" ry="10" style="fill: rgb(161, 202, 230); stroke: rgb(204, 204, 204); stroke-width: 2;"></rect><rect x="160" y="160" width="60" height="60" rx="10" ry="10" style="fill: rgb(41, 177, 255); stroke: rgb(204, 204, 204); stroke-width: 2;"></rect><rect x="225" y="160" width="60" height="60" rx="10" ry="10" style="fill: rgb(161, 202, 230); stroke: rgb(204, 204, 204); stroke-width: 2;"></rect><rect x="290" y="160" width="60" height="60" rx="10" ry="10" style="fill: rgb(240, 240, 240); stroke: rgb(204, 204, 204); stroke-width: 2;"></rect><rect x="30" y="225" width="60" height="60" rx="10" ry="10" style="fill: rgb(240, 240, 240); stroke: rgb(204, 204, 204); stroke-width: 2;"></rect><rect x="95" y="225" width="60" height="60" rx="10" ry="10" style="fill: rgb(240, 240, 240); stroke: rgb(204, 204, 204); stroke-width: 2;"></rect><rect x="160" y="225" width="60" height="60" rx="10" ry="10" style="fill: rgb(161, 202, 230); stroke: rgb(204, 204, 204); stroke-width: 2;"></rect><rect x="225" y="225" width="60" height="60" rx="10" ry="10" style="fill: rgb(240, 240, 240); stroke: rgb(204, 204, 204); stroke-width: 2;"></rect><rect x="290" y="225" width="60" height="60" rx="10" ry="10" style="fill: rgb(240, 240, 240); stroke: rgb(204, 204, 204); stroke-width: 2;"></rect><rect x="30" y="290" width="60" height="60" rx="10" ry="10" style="fill: rgb(240, 240, 240); stroke: rgb(204, 204, 204); stroke-width: 2;"></rect><rect x="95" y="290" width="60" height="60" rx="10" ry="10" style="fill: rgb(240, 240, 240); stroke: rgb(204, 204, 204); stroke-width: 2;"></rect><rect x="160" y="290" width="60" height="60" rx="10" ry="10" style="fill: rgb(240, 240, 240); stroke: rgb(204, 204, 204); stroke-width: 2;"></rect><rect x="225" y="290" width="60" height="60" rx="10" ry="10" style="fill: rgb(240, 240, 240); stroke: rgb(204, 204, 204); stroke-width: 2;"></rect><rect x="290" y="290" width="60" height="60" rx="10" ry="10" style="fill: rgb(240, 240, 240); stroke: rgb(204, 204, 204); stroke-width: 2;"></rect></svg>