<svg id="svg2" viewBox="0 0 340 340" xmlns="http://www.w3.org/2000/svg"><rect x="10" y="10" width="60" height="60" rx="10" ry="10" style="fill: rgb(240, 240, 240); stroke: rgb(204, 204, 204); stroke-width: 2;"></rect><rect x="75" y="10" width="60" height="60" rx="10" ry="10" style="fill: rgb(240, 240, 240); stroke: rgb(204, 204, 204); stroke-width: 2;"></rect><rect x="140" y="10" width="60" height="60" rx="10" ry="10" style="fill: rgb(240, 240, 240); stroke: rgb(204, 204, 204); stroke-width: 2;"></rect><rect x="205" y="10" width="60" height="60" rx="10" ry="10" style="fill: rgb(240, 240, 240); stroke: rgb(204, 204, 204); stroke-width: 2;"></rect><rect x="270" y="10" width="60" height="60" rx="10" ry="10" style="fill: rgb(240, 240, 240); stroke: rgb(204, 204, 204); stroke-width: 2;"></rect><rect x="10" y="75" width="60" height="60" rx="10" ry="10" style="fill: rgb(240, 240, 240); stroke: rgb(204, 204, 204); stroke-width: 2;"></rect><rect x="75" y="75" width="60" height="60" rx="10" ry="10" style="fill: rgb(240, 240, 240); stroke: rgb(204, 204, 204); stroke-width: 2;"></rect><rect x="140" y="75" width="60" height="60" rx="10" ry="10" style="fill: rgb(240, 240, 240); stroke: rgb(204, 204, 204); stroke-width: 2;"></rect><rect x="205" y="75" width="60" height="60" rx="10" ry="10" style="fill: rgb(240, 240, 240); stroke: rgb(204, 204, 204); stroke-width: 2;"></rect><rect x="270" y="75" width="60" height="60" rx="10" ry="10" style="fill: rgb(240, 240, 240); stroke: rgb(204, 204, 204); stroke-width: 2;"></rect><rect x="10" y="140" width="60" height="60" rx="10" ry="10" style="fill: rgb(240, 240, 240); stroke: rgb(204, 204, 204); stroke-width: 2;"></rect><rect x="75" y="140" width="60" height="60" rx="10" ry="10" style="fill: rgb(240, 240, 240); stroke: rgb(204, 204, 204); stroke-width: 2;"></rect><rect x="140" y="140" width="60" height="60" rx="10" ry="10" style="fill: rgb(41, 177, 255); stroke: rgb(204, 204, 204); stroke-width: 2;"></rect><rect x="205" y="140" width="60" height="60" rx="10" ry="10" style="fill: rgb(240, 240, 240); stroke: rgb(204, 204, 204); stroke-width: 2;"></rect><rect x="270" y="140" width="60" height="60" rx="10" ry="10" style="fill: rgb(240, 240, 240); stroke: rgb(204, 204, 204); stroke-width: 2;"></rect><rect x="10" y="205" width="60" height="60" rx="10" ry="10" style="fill: rgb(240, 240, 240); stroke: rgb(204, 204, 204); stroke-width: 2;"></rect><rect x="75" y="205" width="60" height="60" rx="10" ry="10" style="fill: rgb(240, 240, 240); stroke: rgb(204, 204, 204); stroke-width: 2;"></rect><rect x="140" y="205" width="60" height="60" rx="10" ry="10" style="fill: rgb(240, 240, 240); stroke: rgb(204, 204, 204); stroke-width: 2;"></rect><rect x="205" y="205" width="60" height="60" rx="10" ry="10" style="fill: rgb(240, 240, 240); stroke: rgb(204, 204, 204); stroke-width: 2;"></rect><rect x="270" y="205" width="60" height="60" rx="10" ry="10" style="fill: rgb(240, 240, 240); stroke: rgb(204, 204, 204); stroke-width: 2;"></rect><rect x="10" y="270" width="60" height="60" rx="10" ry="10" style="fill: rgb(240, 240, 240); stroke: rgb(204, 204, 204); stroke-width: 2;"></rect><rect x="75" y="270" width="60" height="60" rx="10" ry="10" style="fill: rgb(240, 240, 240); stroke: rgb(204, 204, 204); stroke-width: 2;"></rect><rect x="140" y="270" width="60" height="60" rx="10" ry="10" style="fill: rgb(240, 240, 240); stroke: rgb(204, 204, 204); stroke-width: 2;"></rect><rect x="205" y="270" width="60" height="60" rx="10" ry="10" style="fill: rgb(240, 240, 240); stroke: rgb(204, 204, 204); stroke-width: 2;"></rect><rect x="270" y="270" width="60" height="60" rx="10" ry="10" style="fill: rgb(240, 240, 240); stroke: rgb(204, 204, 204); stroke-width: 2;"></rect><g transform="rotate(0, 170, 170)"><line x1="170" x2="170" y1="60" y2="170" stroke="#333333" stroke-width="10" stroke-linecap="round"/><line x1="170" x2="155" y1="60" y2="80" stroke="#333333" stroke-width="10" stroke-linecap="round"/><line x1="170" x2="185" y1="60" y2="80" stroke="#333333" stroke-width="10" stroke-linecap="round"/></g><g transform="rotate(45, 170, 170)"><line x1="170" x2="170" y1="60" y2="170" stroke="#333333" stroke-width="10" stroke-linecap="round"/><line x1="170" x2="155" y1="60" y2="80" stroke="#333333" stroke-width="10" stroke-linecap="round"/><line x1="170" x2="185" y1="60" y2="80" stroke="#333333" stroke-width="10" stroke-linecap="round"/></g><g transform="rotate(90, 170, 170)"><line x1="170" x2="170" y1="60" y2="170" stroke="#333333" stroke-width="10" stroke-linecap="round"/><line x1="170" x2="155" y1="60" y2="80" stroke="#333333" stroke-width="10" stroke-linecap="round"/><line x1="170" x2="185" y1="60" y2="80" stroke="#333333" stroke-width="10" stroke-linecap="round"/></g><g transform="rotate(135, 170, 170)"><line x1="170" x2="170" y1="60" y2="170" stroke="#333333" stroke-width="10" stroke-linecap="round"/><line x1="170" x2="155" y1="60" y2="80" stroke="#333333" stroke-width="10" stroke-linecap="round"/><line x1="170" x2="185" y1="60" y2="80" stroke="#333333" stroke-width="10" stroke-linecap="round"/></g><g transform="rotate(180, 170, 170)"><line x1="170" x2="170" y1="60" y2="170" stroke="#333333" stroke-width="10" stroke-linecap="round"/><line x1="170" x2="155" y1="60" y2="80" stroke="#333333" stroke-width="10" stroke-linecap="round"/><line x1="170" x2="185" y1="60" y2="80" stroke="#333333" stroke-width="10" stroke-linecap="round"/></g><g transform="rotate(225, 170, 170)"><line x1="170" x2="170" y1="60" y2="170" stroke="#333333" stroke-width="10" stroke-linecap="round"/><line x1="170" x2="155" y1="60" y2="80" stroke="#333333" stroke-width="10" stroke-linecap="round"/><line x1="170" x2="185" y1="60" y2="80" stroke="#333333" stroke-width="10" stroke-linecap="round"/></g><g transform="rotate(270, 170, 170)"><line x1="170" x2="170" y1="60" y2="170" stroke="#333333" stroke-width="10" stroke-linecap="round"/><line x1="170" x2="155" y1="60" y2="80" stroke="#333333" stroke-width="10" stroke-linecap="round"/><line x1="170" x2="185" y1="60" y2="80" stroke="#333333" stroke-width="10" stroke-linecap="round"/></g><g transform="rotate(315, 170, 170)"><line x1="170" x2="170" y1="60" y2="170" stroke="#333333" stroke-width="10" stroke-linecap="round"/><line x1="170" x2="155" y1="60" y2="80" stroke="#333333" stroke-width="10" stroke-linecap="round"/><line x1="170" x2="185" y1="60" y2="80" stroke="#333333" stroke-width="10" stroke-linecap="round"/></g><g transform="rotate(360, 170, 170)"><line x1="170" x2="170" y1="60" y2="170" stroke="#333333" stroke-width="10" stroke-linecap="round"/><line x1="170" x2="155" y1="60" y2="80" stroke="#333333" stroke-width="10" stroke-linecap="round"/><line x1="170" x2="185" y1="60" y2="80" stroke="#333333" stroke-width="10" stroke-linecap="round"/></g></svg>