<svg id="svg2" viewBox="0 0 390 360" xmlns="http://www.w3.org/2000/svg"><path stroke="rgb(204, 204, 204)" fill="rgb(240, 240, 240)" stroke-width="2" d="
      M 115 15
      a 10 10 0 0 1 10 0
      l 24.641016151378 14.226497308104
      a 10 10 0 0 1 5 8.6602540378444
      l 0 28.452994616207
      a 10 10 0 0 1 -5 8.6602540378444
      l -24.641016151378 14.226497308104
      a 10 10 0 0 1 -10 0
      l -24.641016151378 -14.226497308104
      a 10 10 0 0 1 -5 -8.6602540378444
      l 0 -28.452994616207
      a 10 10 0 0 1 5 -8.6602540378444
      Z
      "></path><path stroke="rgb(204, 204, 204)" fill="rgb(240, 240, 240)" stroke-width="2" d="
      M 190 15
      a 10 10 0 0 1 10 0
      l 24.641016151378 14.226497308104
      a 10 10 0 0 1 5 8.6602540378444
      l 0 28.452994616207
      a 10 10 0 0 1 -5 8.6602540378444
      l -24.641016151378 14.226497308104
      a 10 10 0 0 1 -10 0
      l -24.641016151378 -14.226497308104
      a 10 10 0 0 1 -5 -8.6602540378444
      l 0 -28.452994616207
      a 10 10 0 0 1 5 -8.6602540378444
      Z
      "></path><path stroke="rgb(204, 204, 204)" fill="rgb(240, 240, 240)" stroke-width="2" d="
      M 265 15
      a 10 10 0 0 1 10 0
      l 24.641016151378 14.226497308104
      a 10 10 0 0 1 5 8.6602540378444
      l 0 28.452994616207
      a 10 10 0 0 1 -5 8.6602540378444
      l -24.641016151378 14.226497308104
      a 10 10 0 0 1 -10 0
      l -24.641016151378 -14.226497308104
      a 10 10 0 0 1 -5 -8.6602540378444
      l 0 -28.452994616207
      a 10 10 0 0 1 5 -8.6602540378444
      Z
      "></path><path stroke="rgb(204, 204, 204)" fill="rgb(240, 240, 240)" stroke-width="2" d="
      M 77.5 80
      a 10 10 0 0 1 10 0
      l 24.641016151378 14.226497308104
      a 10 10 0 0 1 5 8.6602540378444
      l 0 28.452994616207
      a 10 10 0 0 1 -5 8.6602540378444
      l -24.641016151378 14.226497308104
      a 10 10 0 0 1 -10 0
      l -24.641016151378 -14.226497308104
      a 10 10 0 0 1 -5 -8.6602540378444
      l 0 -28.452994616207
      a 10 10 0 0 1 5 -8.6602540378444
      Z
      "></path><path stroke="rgb(204, 204, 204)" fill="rgb(240, 240, 240)" stroke-width="2" d="
      M 152.5 80
      a 10 10 0 0 1 10 0
      l 24.641016151378 14.226497308104
      a 10 10 0 0 1 5 8.6602540378444
      l 0 28.452994616207
      a 10 10 0 0 1 -5 8.6602540378444
      l -24.641016151378 14.226497308104
      a 10 10 0 0 1 -10 0
      l -24.641016151378 -14.226497308104
      a 10 10 0 0 1 -5 -8.6602540378444
      l 0 -28.452994616207
      a 10 10 0 0 1 5 -8.6602540378444
      Z
      "></path><path stroke="rgb(204, 204, 204)" fill="rgb(240, 240, 240)" stroke-width="2" d="
      M 227.5 80
      a 10 10 0 0 1 10 0
      l 24.641016151378 14.226497308104
      a 10 10 0 0 1 5 8.6602540378444
      l 0 28.452994616207
      a 10 10 0 0 1 -5 8.6602540378444
      l -24.641016151378 14.226497308104
      a 10 10 0 0 1 -10 0
      l -24.641016151378 -14.226497308104
      a 10 10 0 0 1 -5 -8.6602540378444
      l 0 -28.452994616207
      a 10 10 0 0 1 5 -8.6602540378444
      Z
      "></path><path stroke="rgb(204, 204, 204)" fill="rgb(240, 240, 240)" stroke-width="2" d="
      M 302.5 80
      a 10 10 0 0 1 10 0
      l 24.641016151378 14.226497308104
      a 10 10 0 0 1 5 8.6602540378444
      l 0 28.452994616207
      a 10 10 0 0 1 -5 8.6602540378444
      l -24.641016151378 14.226497308104
      a 10 10 0 0 1 -10 0
      l -24.641016151378 -14.226497308104
      a 10 10 0 0 1 -5 -8.6602540378444
      l 0 -28.452994616207
      a 10 10 0 0 1 5 -8.6602540378444
      Z
      "></path><path stroke="rgb(204, 204, 204)" fill="rgb(240, 240, 240)" stroke-width="2" d="
      M 40 145
      a 10 10 0 0 1 10 0
      l 24.641016151378 14.226497308104
      a 10 10 0 0 1 5 8.6602540378444
      l 0 28.452994616207
      a 10 10 0 0 1 -5 8.6602540378444
      l -24.641016151378 14.226497308104
      a 10 10 0 0 1 -10 0
      l -24.641016151378 -14.226497308104
      a 10 10 0 0 1 -5 -8.6602540378444
      l 0 -28.452994616207
      a 10 10 0 0 1 5 -8.6602540378444
      Z
      "></path><path stroke="rgb(204, 204, 204)" fill="rgb(240, 240, 240)" stroke-width="2" d="
      M 115 145
      a 10 10 0 0 1 10 0
      l 24.641016151378 14.226497308104
      a 10 10 0 0 1 5 8.6602540378444
      l 0 28.452994616207
      a 10 10 0 0 1 -5 8.6602540378444
      l -24.641016151378 14.226497308104
      a 10 10 0 0 1 -10 0
      l -24.641016151378 -14.226497308104
      a 10 10 0 0 1 -5 -8.6602540378444
      l 0 -28.452994616207
      a 10 10 0 0 1 5 -8.6602540378444
      Z
      "></path><path stroke="rgb(204, 204, 204)" fill="hsl(204, 98%, 60%)" stroke-width="2" d="
      M 190 145
      a 10 10 0 0 1 10 0
      l 24.641016151378 14.226497308104
      a 10 10 0 0 1 5 8.6602540378444
      l 0 28.452994616207
      a 10 10 0 0 1 -5 8.6602540378444
      l -24.641016151378 14.226497308104
      a 10 10 0 0 1 -10 0
      l -24.641016151378 -14.226497308104
      a 10 10 0 0 1 -5 -8.6602540378444
      l 0 -28.452994616207
      a 10 10 0 0 1 5 -8.6602540378444
      Z
      "></path><path stroke="rgb(204, 204, 204)" fill="rgb(240, 240, 240)" stroke-width="2" d="
      M 265 145
      a 10 10 0 0 1 10 0
      l 24.641016151378 14.226497308104
      a 10 10 0 0 1 5 8.6602540378444
      l 0 28.452994616207
      a 10 10 0 0 1 -5 8.6602540378444
      l -24.641016151378 14.226497308104
      a 10 10 0 0 1 -10 0
      l -24.641016151378 -14.226497308104
      a 10 10 0 0 1 -5 -8.6602540378444
      l 0 -28.452994616207
      a 10 10 0 0 1 5 -8.6602540378444
      Z
      "></path><path stroke="rgb(204, 204, 204)" fill="rgb(240, 240, 240)" stroke-width="2" d="
      M 340 145
      a 10 10 0 0 1 10 0
      l 24.641016151378 14.226497308104
      a 10 10 0 0 1 5 8.6602540378444
      l 0 28.452994616207
      a 10 10 0 0 1 -5 8.6602540378444
      l -24.641016151378 14.226497308104
      a 10 10 0 0 1 -10 0
      l -24.641016151378 -14.226497308104
      a 10 10 0 0 1 -5 -8.6602540378444
      l 0 -28.452994616207
      a 10 10 0 0 1 5 -8.6602540378444
      Z
      "></path><path stroke="rgb(204, 204, 204)" fill="rgb(240, 240, 240)" stroke-width="2" d="
      M 77.5 210
      a 10 10 0 0 1 10 0
      l 24.641016151378 14.226497308104
      a 10 10 0 0 1 5 8.6602540378444
      l 0 28.452994616207
      a 10 10 0 0 1 -5 8.6602540378444
      l -24.641016151378 14.226497308104
      a 10 10 0 0 1 -10 0
      l -24.641016151378 -14.226497308104
      a 10 10 0 0 1 -5 -8.6602540378444
      l 0 -28.452994616207
      a 10 10 0 0 1 5 -8.6602540378444
      Z
      "></path><path stroke="rgb(204, 204, 204)" fill="rgb(240, 240, 240)" stroke-width="2" d="
      M 152.5 210
      a 10 10 0 0 1 10 0
      l 24.641016151378 14.226497308104
      a 10 10 0 0 1 5 8.6602540378444
      l 0 28.452994616207
      a 10 10 0 0 1 -5 8.6602540378444
      l -24.641016151378 14.226497308104
      a 10 10 0 0 1 -10 0
      l -24.641016151378 -14.226497308104
      a 10 10 0 0 1 -5 -8.6602540378444
      l 0 -28.452994616207
      a 10 10 0 0 1 5 -8.6602540378444
      Z
      "></path><path stroke="rgb(204, 204, 204)" fill="rgb(240, 240, 240)" stroke-width="2" d="
      M 227.5 210
      a 10 10 0 0 1 10 0
      l 24.641016151378 14.226497308104
      a 10 10 0 0 1 5 8.6602540378444
      l 0 28.452994616207
      a 10 10 0 0 1 -5 8.6602540378444
      l -24.641016151378 14.226497308104
      a 10 10 0 0 1 -10 0
      l -24.641016151378 -14.226497308104
      a 10 10 0 0 1 -5 -8.6602540378444
      l 0 -28.452994616207
      a 10 10 0 0 1 5 -8.6602540378444
      Z
      "></path><path stroke="rgb(204, 204, 204)" fill="rgb(240, 240, 240)" stroke-width="2" d="
      M 302.5 210
      a 10 10 0 0 1 10 0
      l 24.641016151378 14.226497308104
      a 10 10 0 0 1 5 8.6602540378444
      l 0 28.452994616207
      a 10 10 0 0 1 -5 8.6602540378444
      l -24.641016151378 14.226497308104
      a 10 10 0 0 1 -10 0
      l -24.641016151378 -14.226497308104
      a 10 10 0 0 1 -5 -8.6602540378444
      l 0 -28.452994616207
      a 10 10 0 0 1 5 -8.6602540378444
      Z
      "></path><path stroke="rgb(204, 204, 204)" fill="rgb(240, 240, 240)" stroke-width="2" d="
      M 115 275
      a 10 10 0 0 1 10 0
      l 24.641016151378 14.226497308104
      a 10 10 0 0 1 5 8.6602540378444
      l 0 28.452994616207
      a 10 10 0 0 1 -5 8.6602540378444
      l -24.641016151378 14.226497308104
      a 10 10 0 0 1 -10 0
      l -24.641016151378 -14.226497308104
      a 10 10 0 0 1 -5 -8.6602540378444
      l 0 -28.452994616207
      a 10 10 0 0 1 5 -8.6602540378444
      Z
      "></path><path stroke="rgb(204, 204, 204)" fill="rgb(240, 240, 240)" stroke-width="2" d="
      M 190 275
      a 10 10 0 0 1 10 0
      l 24.641016151378 14.226497308104
      a 10 10 0 0 1 5 8.6602540378444
      l 0 28.452994616207
      a 10 10 0 0 1 -5 8.6602540378444
      l -24.641016151378 14.226497308104
      a 10 10 0 0 1 -10 0
      l -24.641016151378 -14.226497308104
      a 10 10 0 0 1 -5 -8.6602540378444
      l 0 -28.452994616207
      a 10 10 0 0 1 5 -8.6602540378444
      Z
      "></path><path stroke="rgb(204, 204, 204)" fill="rgb(240, 240, 240)" stroke-width="2" d="
      M 265 275
      a 10 10 0 0 1 10 0
      l 24.641016151378 14.226497308104
      a 10 10 0 0 1 5 8.6602540378444
      l 0 28.452994616207
      a 10 10 0 0 1 -5 8.6602540378444
      l -24.641016151378 14.226497308104
      a 10 10 0 0 1 -10 0
      l -24.641016151378 -14.226497308104
      a 10 10 0 0 1 -5 -8.6602540378444
      l 0 -28.452994616207
      a 10 10 0 0 1 5 -8.6602540378444
      Z
      "></path><g transform="rotate(30, 195, 180)"><line x1="195" x2="195" y1="70" y2="180" stroke="#333333" stroke-width="10" stroke-linecap="round"/><line x1="195" x2="180" y1="70" y2="90" stroke="#333333" stroke-width="10" stroke-linecap="round"/><line x1="195" x2="210" y1="70" y2="90" stroke="#333333" stroke-width="10" stroke-linecap="round"/></g><g transform="rotate(90, 195, 180)"><line x1="195" x2="195" y1="70" y2="180" stroke="#333333" stroke-width="10" stroke-linecap="round"/><line x1="195" x2="180" y1="70" y2="90" stroke="#333333" stroke-width="10" stroke-linecap="round"/><line x1="195" x2="210" y1="70" y2="90" stroke="#333333" stroke-width="10" stroke-linecap="round"/></g><g transform="rotate(150, 195, 180)"><line x1="195" x2="195" y1="70" y2="180" stroke="#333333" stroke-width="10" stroke-linecap="round"/><line x1="195" x2="180" y1="70" y2="90" stroke="#333333" stroke-width="10" stroke-linecap="round"/><line x1="195" x2="210" y1="70" y2="90" stroke="#333333" stroke-width="10" stroke-linecap="round"/></g><g transform="rotate(210, 195, 180)"><line x1="195" x2="195" y1="70" y2="180" stroke="#333333" stroke-width="10" stroke-linecap="round"/><line x1="195" x2="180" y1="70" y2="90" stroke="#333333" stroke-width="10" stroke-linecap="round"/><line x1="195" x2="210" y1="70" y2="90" stroke="#333333" stroke-width="10" stroke-linecap="round"/></g><g transform="rotate(270, 195, 180)"><line x1="195" x2="195" y1="70" y2="180" stroke="#333333" stroke-width="10" stroke-linecap="round"/><line x1="195" x2="180" y1="70" y2="90" stroke="#333333" stroke-width="10" stroke-linecap="round"/><line x1="195" x2="210" y1="70" y2="90" stroke="#333333" stroke-width="10" stroke-linecap="round"/></g><g transform="rotate(330, 195, 180)"><line x1="195" x2="195" y1="70" y2="180" stroke="#333333" stroke-width="10" stroke-linecap="round"/><line x1="195" x2="180" y1="70" y2="90" stroke="#333333" stroke-width="10" stroke-linecap="round"/><line x1="195" x2="210" y1="70" y2="90" stroke="#333333" stroke-width="10" stroke-linecap="round"/></g><g transform="rotate(390, 195, 180)"><line x1="195" x2="195" y1="70" y2="180" stroke="#333333" stroke-width="10" stroke-linecap="round"/><line x1="195" x2="180" y1="70" y2="90" stroke="#333333" stroke-width="10" stroke-linecap="round"/><line x1="195" x2="210" y1="70" y2="90" stroke="#333333" stroke-width="10" stroke-linecap="round"/></g></svg>