<svg id="svg2" viewBox="0 0 390 360" xmlns="http://www.w3.org/2000/svg"><path stroke="rgb(204, 204, 204)" fill="rgb(161, 202, 230)" stroke-width="2" d="
      M 115 15
      a 10 10 0 0 1 10 0
      l 24.641016151378 14.226497308104
      a 10 10 0 0 1 5 8.6602540378444
      l 0 28.452994616207
      a 10 10 0 0 1 -5 8.6602540378444
      l -24.641016151378 14.226497308104
      a 10 10 0 0 1 -10 0
      l -24.641016151378 -14.226497308104
      a 10 10 0 0 1 -5 -8.6602540378444
      l 0 -28.452994616207
      a 10 10 0 0 1 5 -8.6602540378444
      Z
      "></path><path stroke="rgb(204, 204, 204)" fill="rgb(161, 202, 230)" stroke-width="2" d="
      M 190 15
      a 10 10 0 0 1 10 0
      l 24.641016151378 14.226497308104
      a 10 10 0 0 1 5 8.6602540378444
      l 0 28.452994616207
      a 10 10 0 0 1 -5 8.6602540378444
      l -24.641016151378 14.226497308104
      a 10 10 0 0 1 -10 0
      l -24.641016151378 -14.226497308104
      a 10 10 0 0 1 -5 -8.6602540378444
      l 0 -28.452994616207
      a 10 10 0 0 1 5 -8.6602540378444
      Z
      "></path><path stroke="rgb(204, 204, 204)" fill="rgb(161, 202, 230)" stroke-width="2" d="
      M 265 15
      a 10 10 0 0 1 10 0
      l 24.641016151378 14.226497308104
      a 10 10 0 0 1 5 8.6602540378444
      l 0 28.452994616207
      a 10 10 0 0 1 -5 8.6602540378444
      l -24.641016151378 14.226497308104
      a 10 10 0 0 1 -10 0
      l -24.641016151378 -14.226497308104
      a 10 10 0 0 1 -5 -8.6602540378444
      l 0 -28.452994616207
      a 10 10 0 0 1 5 -8.6602540378444
      Z
      "></path><path stroke="rgb(204, 204, 204)" fill="rgb(161, 202, 230)" stroke-width="2" d="
      M 77.5 80
      a 10 10 0 0 1 10 0
      l 24.641016151378 14.226497308104
      a 10 10 0 0 1 5 8.6602540378444
      l 0 28.452994616207
      a 10 10 0 0 1 -5 8.6602540378444
      l -24.641016151378 14.226497308104
      a 10 10 0 0 1 -10 0
      l -24.641016151378 -14.226497308104
      a 10 10 0 0 1 -5 -8.6602540378444
      l 0 -28.452994616207
      a 10 10 0 0 1 5 -8.6602540378444
      Z
      "></path><path stroke="rgb(204, 204, 204)" fill="rgb(161, 202, 230)" stroke-width="2" d="
      M 152.5 80
      a 10 10 0 0 1 10 0
      l 24.641016151378 14.226497308104
      a 10 10 0 0 1 5 8.6602540378444
      l 0 28.452994616207
      a 10 10 0 0 1 -5 8.6602540378444
      l -24.641016151378 14.226497308104
      a 10 10 0 0 1 -10 0
      l -24.641016151378 -14.226497308104
      a 10 10 0 0 1 -5 -8.6602540378444
      l 0 -28.452994616207
      a 10 10 0 0 1 5 -8.6602540378444
      Z
      "></path><path stroke="rgb(204, 204, 204)" fill="rgb(161, 202, 230)" stroke-width="2" d="
      M 227.5 80
      a 10 10 0 0 1 10 0
      l 24.641016151378 14.226497308104
      a 10 10 0 0 1 5 8.6602540378444
      l 0 28.452994616207
      a 10 10 0 0 1 -5 8.6602540378444
      l -24.641016151378 14.226497308104
      a 10 10 0 0 1 -10 0
      l -24.641016151378 -14.226497308104
      a 10 10 0 0 1 -5 -8.6602540378444
      l 0 -28.452994616207
      a 10 10 0 0 1 5 -8.6602540378444
      Z
      "></path><path stroke="rgb(204, 204, 204)" fill="rgb(161, 202, 230)" stroke-width="2" d="
      M 302.5 80
      a 10 10 0 0 1 10 0
      l 24.641016151378 14.226497308104
      a 10 10 0 0 1 5 8.6602540378444
      l 0 28.452994616207
      a 10 10 0 0 1 -5 8.6602540378444
      l -24.641016151378 14.226497308104
      a 10 10 0 0 1 -10 0
      l -24.641016151378 -14.226497308104
      a 10 10 0 0 1 -5 -8.6602540378444
      l 0 -28.452994616207
      a 10 10 0 0 1 5 -8.6602540378444
      Z
      "></path><path stroke="rgb(204, 204, 204)" fill="rgb(161, 202, 230)" stroke-width="2" d="
      M 40 145
      a 10 10 0 0 1 10 0
      l 24.641016151378 14.226497308104
      a 10 10 0 0 1 5 8.6602540378444
      l 0 28.452994616207
      a 10 10 0 0 1 -5 8.6602540378444
      l -24.641016151378 14.226497308104
      a 10 10 0 0 1 -10 0
      l -24.641016151378 -14.226497308104
      a 10 10 0 0 1 -5 -8.6602540378444
      l 0 -28.452994616207
      a 10 10 0 0 1 5 -8.6602540378444
      Z
      "></path><path stroke="rgb(204, 204, 204)" fill="rgb(161, 202, 230)" stroke-width="2" d="
      M 115 145
      a 10 10 0 0 1 10 0
      l 24.641016151378 14.226497308104
      a 10 10 0 0 1 5 8.6602540378444
      l 0 28.452994616207
      a 10 10 0 0 1 -5 8.6602540378444
      l -24.641016151378 14.226497308104
      a 10 10 0 0 1 -10 0
      l -24.641016151378 -14.226497308104
      a 10 10 0 0 1 -5 -8.6602540378444
      l 0 -28.452994616207
      a 10 10 0 0 1 5 -8.6602540378444
      Z
      "></path><path stroke="rgb(204, 204, 204)" fill="rgb(41, 177, 255)" stroke-width="2" d="
      M 190 145
      a 10 10 0 0 1 10 0
      l 24.641016151378 14.226497308104
      a 10 10 0 0 1 5 8.6602540378444
      l 0 28.452994616207
      a 10 10 0 0 1 -5 8.6602540378444
      l -24.641016151378 14.226497308104
      a 10 10 0 0 1 -10 0
      l -24.641016151378 -14.226497308104
      a 10 10 0 0 1 -5 -8.6602540378444
      l 0 -28.452994616207
      a 10 10 0 0 1 5 -8.6602540378444
      Z
      "></path><path stroke="rgb(204, 204, 204)" fill="rgb(161, 202, 230)" stroke-width="2" d="
      M 265 145
      a 10 10 0 0 1 10 0
      l 24.641016151378 14.226497308104
      a 10 10 0 0 1 5 8.6602540378444
      l 0 28.452994616207
      a 10 10 0 0 1 -5 8.6602540378444
      l -24.641016151378 14.226497308104
      a 10 10 0 0 1 -10 0
      l -24.641016151378 -14.226497308104
      a 10 10 0 0 1 -5 -8.6602540378444
      l 0 -28.452994616207
      a 10 10 0 0 1 5 -8.6602540378444
      Z
      "></path><path stroke="rgb(204, 204, 204)" fill="rgb(161, 202, 230)" stroke-width="2" d="
      M 340 145
      a 10 10 0 0 1 10 0
      l 24.641016151378 14.226497308104
      a 10 10 0 0 1 5 8.6602540378444
      l 0 28.452994616207
      a 10 10 0 0 1 -5 8.6602540378444
      l -24.641016151378 14.226497308104
      a 10 10 0 0 1 -10 0
      l -24.641016151378 -14.226497308104
      a 10 10 0 0 1 -5 -8.6602540378444
      l 0 -28.452994616207
      a 10 10 0 0 1 5 -8.6602540378444
      Z
      "></path><path stroke="rgb(204, 204, 204)" fill="rgb(161, 202, 230)" stroke-width="2" d="
      M 77.5 210
      a 10 10 0 0 1 10 0
      l 24.641016151378 14.226497308104
      a 10 10 0 0 1 5 8.6602540378444
      l 0 28.452994616207
      a 10 10 0 0 1 -5 8.6602540378444
      l -24.641016151378 14.226497308104
      a 10 10 0 0 1 -10 0
      l -24.641016151378 -14.226497308104
      a 10 10 0 0 1 -5 -8.6602540378444
      l 0 -28.452994616207
      a 10 10 0 0 1 5 -8.6602540378444
      Z
      "></path><path stroke="rgb(204, 204, 204)" fill="rgb(161, 202, 230)" stroke-width="2" d="
      M 152.5 210
      a 10 10 0 0 1 10 0
      l 24.641016151378 14.226497308104
      a 10 10 0 0 1 5 8.6602540378444
      l 0 28.452994616207
      a 10 10 0 0 1 -5 8.6602540378444
      l -24.641016151378 14.226497308104
      a 10 10 0 0 1 -10 0
      l -24.641016151378 -14.226497308104
      a 10 10 0 0 1 -5 -8.6602540378444
      l 0 -28.452994616207
      a 10 10 0 0 1 5 -8.6602540378444
      Z
      "></path><path stroke="rgb(204, 204, 204)" fill="rgb(161, 202, 230)" stroke-width="2" d="
      M 227.5 210
      a 10 10 0 0 1 10 0
      l 24.641016151378 14.226497308104
      a 10 10 0 0 1 5 8.6602540378444
      l 0 28.452994616207
      a 10 10 0 0 1 -5 8.6602540378444
      l -24.641016151378 14.226497308104
      a 10 10 0 0 1 -10 0
      l -24.641016151378 -14.226497308104
      a 10 10 0 0 1 -5 -8.6602540378444
      l 0 -28.452994616207
      a 10 10 0 0 1 5 -8.6602540378444
      Z
      "></path><path stroke="rgb(204, 204, 204)" fill="rgb(161, 202, 230)" stroke-width="2" d="
      M 302.5 210
      a 10 10 0 0 1 10 0
      l 24.641016151378 14.226497308104
      a 10 10 0 0 1 5 8.6602540378444
      l 0 28.452994616207
      a 10 10 0 0 1 -5 8.6602540378444
      l -24.641016151378 14.226497308104
      a 10 10 0 0 1 -10 0
      l -24.641016151378 -14.226497308104
      a 10 10 0 0 1 -5 -8.6602540378444
      l 0 -28.452994616207
      a 10 10 0 0 1 5 -8.6602540378444
      Z
      "></path><path stroke="rgb(204, 204, 204)" fill="rgb(161, 202, 230)" stroke-width="2" d="
      M 115 275
      a 10 10 0 0 1 10 0
      l 24.641016151378 14.226497308104
      a 10 10 0 0 1 5 8.6602540378444
      l 0 28.452994616207
      a 10 10 0 0 1 -5 8.6602540378444
      l -24.641016151378 14.226497308104
      a 10 10 0 0 1 -10 0
      l -24.641016151378 -14.226497308104
      a 10 10 0 0 1 -5 -8.6602540378444
      l 0 -28.452994616207
      a 10 10 0 0 1 5 -8.6602540378444
      Z
      "></path><path stroke="rgb(204, 204, 204)" fill="rgb(161, 202, 230)" stroke-width="2" d="
      M 190 275
      a 10 10 0 0 1 10 0
      l 24.641016151378 14.226497308104
      a 10 10 0 0 1 5 8.6602540378444
      l 0 28.452994616207
      a 10 10 0 0 1 -5 8.6602540378444
      l -24.641016151378 14.226497308104
      a 10 10 0 0 1 -10 0
      l -24.641016151378 -14.226497308104
      a 10 10 0 0 1 -5 -8.6602540378444
      l 0 -28.452994616207
      a 10 10 0 0 1 5 -8.6602540378444
      Z
      "></path><path stroke="rgb(204, 204, 204)" fill="rgb(161, 202, 230)" stroke-width="2" d="
      M 265 275
      a 10 10 0 0 1 10 0
      l 24.641016151378 14.226497308104
      a 10 10 0 0 1 5 8.6602540378444
      l 0 28.452994616207
      a 10 10 0 0 1 -5 8.6602540378444
      l -24.641016151378 14.226497308104
      a 10 10 0 0 1 -10 0
      l -24.641016151378 -14.226497308104
      a 10 10 0 0 1 -5 -8.6602540378444
      l 0 -28.452994616207
      a 10 10 0 0 1 5 -8.6602540378444
      Z
      "></path></svg>