<svg id="svg2" viewBox="0 0 340 340" xmlns="http://www.w3.org/2000/svg"><rect x="10" y="10" width="60" height="60" rx="10" ry="10" style="fill: rgb(240, 240, 240); stroke: rgb(204, 204, 204); stroke-width: 2;"></rect><rect x="75" y="10" width="60" height="60" rx="10" ry="10" style="fill: rgb(240, 240, 240); stroke: rgb(204, 204, 204); stroke-width: 2;"></rect><rect x="140" y="10" width="60" height="60" rx="10" ry="10" style="fill: rgb(240, 240, 240); stroke: rgb(204, 204, 204); stroke-width: 2;"></rect><rect x="205" y="10" width="60" height="60" rx="10" ry="10" style="fill: rgb(240, 240, 240); stroke: rgb(204, 204, 204); stroke-width: 2;"></rect><rect x="270" y="10" width="60" height="60" rx="10" ry="10" style="fill: rgb(240, 240, 240); stroke: rgb(204, 204, 204); stroke-width: 2;"></rect><rect x="10" y="75" width="60" height="60" rx="10" ry="10" style="fill: rgb(240, 240, 240); stroke: rgb(204, 204, 204); stroke-width: 2;"></rect><rect x="75" y="75" width="60" height="60" rx="10" ry="10" style="fill: rgb(240, 240, 240); stroke: rgb(204, 204, 204); stroke-width: 2;"></rect><rect x="140" y="75" width="60" height="60" rx="10" ry="10" style="fill: hsl(204, 89%, 72%); stroke: rgb(204, 204, 204); stroke-width: 2;"></rect><rect x="205" y="75" width="60" height="60" rx="10" ry="10" style="fill: rgb(240, 240, 240); stroke: rgb(204, 204, 204); stroke-width: 2;"></rect><rect x="270" y="75" width="60" height="60" rx="10" ry="10" style="fill: rgb(240, 240, 240); stroke: rgb(204, 204, 204); stroke-width: 2;"></rect><rect x="10" y="140" width="60" height="60" rx="10" ry="10" style="fill: rgb(240, 240, 240); stroke: rgb(204, 204, 204); stroke-width: 2;"></rect><rect x="75" y="140" width="60" height="60" rx="10" ry="10" style="fill: hsl(204, 89%, 72%); stroke: rgb(204, 204, 204); stroke-width: 2;"></rect><rect x="140" y="140" width="60" height="60" rx="10" ry="10" style="fill: hsl(204, 80%, 51%); stroke: rgb(204, 204, 204); stroke-width: 2;"></rect><rect x="205" y="140" width="60" height="60" rx="10" ry="10" style="fill: hsl(204, 89%, 72%); stroke: rgb(204, 204, 204); stroke-width: 2;"></rect><rect x="270" y="140" width="60" height="60" rx="10" ry="10" style="fill: rgb(240, 240, 240); stroke: rgb(204, 204, 204); stroke-width: 2;"></rect><rect x="10" y="205" width="60" height="60" rx="10" ry="10" style="fill: rgb(240, 240, 240); stroke: rgb(204, 204, 204); stroke-width: 2;"></rect><rect x="75" y="205" width="60" height="60" rx="10" ry="10" style="fill: rgb(240, 240, 240); stroke: rgb(204, 204, 204); stroke-width: 2;"></rect><rect x="140" y="205" width="60" height="60" rx="10" ry="10" style="fill: hsl(204, 89%, 72%); stroke: rgb(204, 204, 204); stroke-width: 2;"></rect><rect x="205" y="205" width="60" height="60" rx="10" ry="10" style="fill: rgb(240, 240, 240); stroke: rgb(204, 204, 204); stroke-width: 2;"></rect><rect x="270" y="205" width="60" height="60" rx="10" ry="10" style="fill: rgb(240, 240, 240); stroke: rgb(204, 204, 204); stroke-width: 2;"></rect><rect x="10" y="270" width="60" height="60" rx="10" ry="10" style="fill: rgb(240, 240, 240); stroke: rgb(204, 204, 204); stroke-width: 2;"></rect><rect x="75" y="270" width="60" height="60" rx="10" ry="10" style="fill: rgb(240, 240, 240); stroke: rgb(204, 204, 204); stroke-width: 2;"></rect><rect x="140" y="270" width="60" height="60" rx="10" ry="10" style="fill: rgb(240, 240, 240); stroke: rgb(204, 204, 204); stroke-width: 2;"></rect><rect x="205" y="270" width="60" height="60" rx="10" ry="10" style="fill: rgb(240, 240, 240); stroke: rgb(204, 204, 204); stroke-width: 2;"></rect><rect x="270" y="270" width="60" height="60" rx="10" ry="10" style="fill: rgb(240, 240, 240); stroke: rgb(204, 204, 204); stroke-width: 2;"></rect></svg>